<svg xmlns="http://www.w3.org/2000/svg" id="a" viewBox="0 0 1000 1000">
  <defs>
    <style>
      .b{fill:none;stroke:#8f8f8f;stroke-linejoin:round;stroke-width:6px}.d{fill:#8f8f8f;stroke-width:0}
    </style>
  </defs>
  <path fill="#fff" stroke-width="0" d="M4 4h992v992H4z"/>
  <path fill="#84bfed" stroke-width="0" d="M992 8v984H8V8zm8-8H0v1000h1000z"/>
  <path d="M498.17 154.86v750.06" class="b"/>
  <path d="m480.74 166.75 17.43-65.04 17.43 65.04z" class="d"/>
  <path d="M844.08 503.86H102.19" class="b"/>
  <path d="m832.19 486.42 65.05 17.44-65.05 17.43z" class="d"/>
  <path fill="none" stroke="#5757db" stroke-miterlimit="10" stroke-width="6.84" d="M114.52 722.22c36.79-1.16 162.7-15.39 232.56-59.77 117.81-74.83 141.69-134.5 151.24-159.13s38.85-85.82 135.32-143.97c120.99-72.93 232.27-88.46 281.57-91.14M115.17 397.19s240.17 8.9 378.05-155.67m378.04 418.17s-240.17-8.9-378.05 155.67"/>
</svg>
