<svg xmlns="http://www.w3.org/2000/svg" viewBox="0 0 1000 1000">
  <path fill="#fff" d="M4 4h992v992H4z"/>
  <path fill="#84bfed" d="M992 8v984H8V8zm8-8H0v1000h1000z"/>
  <path fill="none" stroke="#8f8f8f" stroke-linejoin="round" stroke-width="6" d="M198.62 197.58v602.73m607.25 0H198.62m50.39-.08v29.09m125.46-29.09v29.09m125.46-29.09v29.09m125.46-29.09v29.09m125.46-29.09v29.09m-581.57-80h29.09m-29.09-125.46h29.09M169.28 498.4h29.09m-29.09-125.46h29.09m-29.09-125.46h29.09"/>
  <path fill="none" stroke="#5757db" stroke-miterlimit="10" stroke-width="8" d="M248.01 508.65c11.01-139.84 26.97-257.31 71.3-257.31 50.95 0 65.51 495.68 133 493.51 58.53-1.88 90.28-343.51 152.5-343.83 58.38-.3 71.45 186.14 106.95 186.34 17.45.1 31.66-43.49 39.71-73.32"/>
</svg>
