<svg xmlns="http://www.w3.org/2000/svg" id="a" viewBox="0 0 1000 1000">
  <defs>
    <style>
      .b{fill:none;stroke:#000;stroke-linejoin:round;stroke-width:8px}
    </style>
  </defs>
  <path fill="#fff" stroke-width="0" d="M4 4h992v992H4z"/>
  <path fill="#84bfed" stroke-width="0" d="M992 8v984H8V8zm8-8H0v1000h1000z"/>
  <path d="M51.03 502.05h180.59" class="b"/>
  <path fill="#fff" stroke="#000" stroke-linejoin="round" stroke-width="8" d="m233.14 801.34 567-298.33-567-301.67s-7.16 607.16 0 600Z"/>
  <path d="M965.15 504H801.14" class="b"/>
  <path fill="#939598" stroke-width="0" d="M317.76 355.42c2.86-1.1 6.16-1.1 9.24 0v18.48l17.82-5.94c1.98 2.2 2.64 5.28 2.64 8.8l-17.82 5.72 11.44 15.62c-1.98 1.98-4.62 4.18-7.7 5.28l-11.22-15.18-10.78 15.18c-3.08-.88-5.94-3.08-7.7-5.06l11-15.62-17.6-5.94c0-3.52.88-6.6 2.86-8.8l17.82 5.94z"/>
</svg>
