<svg xmlns="http://www.w3.org/2000/svg" id="a" viewBox="0 0 1000 1000">
  <defs>
    <style>
      .c{fill:none;stroke-linejoin:round;stroke:#8f8f8f;stroke-width:6px}.d{fill:#8f8f8f;stroke-width:0}
    </style>
  </defs>
  <path fill="#fff" stroke-width="0" d="M4 4h992v992H4z"/>
  <path fill="#84bfed" stroke-width="0" d="M992 8v984H8V8zm8-8H0v1000h1000z"/>
  <path d="M198.62 250.73v602.53" class="c"/>
  <path d="m181.19 262.62 17.43-65.04 17.44 65.04z" class="d"/>
  <path d="M752.71 800.31H150.18" class="c"/>
  <path d="m740.82 782.88 65.05 17.43-65.05 17.43z" class="d"/>
  <path fill="none" stroke="#5757db" stroke-linejoin="round" stroke-width="8" d="M200.5 800.31c118.07-164.87 94.5-316 152.71-501.39 20.91-66.59 82.87-118.86 146.94-57.19 63.02 60.66 37.2 151.57 68.01 229.11 13.8 34.73 52.42 74.35 96.79 52.75 27-13.14 57.73-42.8 70.78-69.55"/>
</svg>
